<?xml version="1.0" encoding="UTF-8" standalone="no"?>
<!-- The icon can be used freely in both personal and commercial projects with no attribution required, but always appreciated. 
You may NOT sub-license, resell, rent, redistribute or otherwise transfer the icon without express written permission from iconmonstr.com -->

<svg
   xmlns:osb="http://www.openswatchbook.org/uri/2009/osb"
   xmlns:dc="http://purl.org/dc/elements/1.1/"
   xmlns:cc="http://creativecommons.org/ns#"
   xmlns:rdf="http://www.w3.org/1999/02/22-rdf-syntax-ns#"
   xmlns:svg="http://www.w3.org/2000/svg"
   xmlns="http://www.w3.org/2000/svg"
   xmlns:sodipodi="http://sodipodi.sourceforge.net/DTD/sodipodi-0.dtd"
   xmlns:inkscape="http://www.inkscape.org/namespaces/inkscape"
   version="1.1"
   x="0px"
   y="0px"
   width="512px"
   height="512px"
   viewBox="0 0 512 512"
   enable-background="new 0 0 512 512"
   xml:space="preserve"
   id="svg4497"
   inkscape:version="0.48.4 r9939"
   sodipodi:docname="gear-5-icon.svg"><metadata
   id="metadata4504"><rdf:RDF><cc:Work
       rdf:about=""><dc:format>image/svg+xml</dc:format><dc:type
         rdf:resource="http://purl.org/dc/dcmitype/StillImage" /><dc:title></dc:title></cc:Work></rdf:RDF></metadata><defs
   id="defs4502"><linearGradient
     inkscape:collect="always"
     id="linearGradient6456"
     osb:paint="gradient"><stop
       style="stop-color:#325d9b;stop-opacity:1;"
       offset="0"
       id="stop6458" /><stop
       style="stop-color:#325d9b;stop-opacity:0;"
       offset="1"
       id="stop6460" /></linearGradient></defs><sodipodi:namedview
   pagecolor="#ffffff"
   bordercolor="#666666"
   borderopacity="1"
   objecttolerance="10"
   gridtolerance="10"
   guidetolerance="10"
   inkscape:pageopacity="0"
   inkscape:pageshadow="2"
   inkscape:window-width="935"
   inkscape:window-height="698"
   id="namedview4500"
   showgrid="false"
   inkscape:zoom="0.4609375"
   inkscape:cx="256"
   inkscape:cy="256"
   inkscape:window-x="0"
   inkscape:window-y="0"
   inkscape:window-maximized="0"
   inkscape:current-layer="svg4497" />

<path
   id="gear-5-icon"
   d="M462,283.742v-55.485l-49.249-17.514c-3.4-11.792-8.095-23.032-13.919-33.563l22.448-47.227   l-39.234-39.234l-47.226,22.449c-10.53-5.824-21.772-10.52-33.564-13.919L283.741,50h-55.484l-17.515,49.25   c-11.792,3.398-23.032,8.094-33.563,13.918l-47.227-22.449l-39.234,39.234l22.45,47.227c-5.824,10.531-10.521,21.771-13.919,33.563   L50,228.257v55.485l49.249,17.514c3.398,11.792,8.095,23.032,13.919,33.563l-22.45,47.227l39.234,39.234l47.227-22.449   c10.531,5.824,21.771,10.52,33.563,13.92L228.257,462h55.484l17.515-49.249c11.792-3.398,23.034-8.095,33.564-13.919l47.226,22.448   l39.234-39.234l-22.448-47.226c5.824-10.53,10.521-21.772,13.919-33.564L462,283.742z M256,331.546   c-41.724,0-75.548-33.823-75.548-75.546s33.824-75.547,75.548-75.547c41.723,0,75.546,33.824,75.546,75.547   S297.723,331.546,256,331.546z"
   style="fill:#325d9b;fill-opacity:1;stroke-width:0;stroke-miterlimit:4;stroke-dasharray:none;marker-end:none" />

</svg>