<?xml version="1.0" encoding="UTF-8" standalone="no"?>
<!-- License Agreement at http://iconmonstr.com/license/ -->

<svg
   xmlns:dc="http://purl.org/dc/elements/1.1/"
   xmlns:cc="http://creativecommons.org/ns#"
   xmlns:rdf="http://www.w3.org/1999/02/22-rdf-syntax-ns#"
   xmlns:svg="http://www.w3.org/2000/svg"
   xmlns="http://www.w3.org/2000/svg"
   xmlns:sodipodi="http://sodipodi.sourceforge.net/DTD/sodipodi-0.dtd"
   xmlns:inkscape="http://www.inkscape.org/namespaces/inkscape"
   version="1.1"
   x="0px"
   y="0px"
   width="512px"
   height="512px"
   viewBox="0 0 512 512"
   enable-background="new 0 0 512 512"
   xml:space="preserve"
   id="svg5883"
   inkscape:version="0.48.4 r9939"
   sodipodi:docname="iconmonstr-tools-2-icon.svg"><metadata
   id="metadata5890"><rdf:RDF><cc:Work
       rdf:about=""><dc:format>image/svg+xml</dc:format><dc:type
         rdf:resource="http://purl.org/dc/dcmitype/StillImage" /><dc:title></dc:title></cc:Work></rdf:RDF></metadata><defs
   id="defs5888" /><sodipodi:namedview
   pagecolor="#ffffff"
   bordercolor="#666666"
   borderopacity="1"
   objecttolerance="10"
   gridtolerance="10"
   guidetolerance="10"
   inkscape:pageopacity="0"
   inkscape:pageshadow="2"
   inkscape:window-width="759"
   inkscape:window-height="480"
   id="namedview5886"
   showgrid="false"
   inkscape:zoom="0.4609375"
   inkscape:cx="256"
   inkscape:cy="256"
   inkscape:window-x="0"
   inkscape:window-y="0"
   inkscape:window-maximized="0"
   inkscape:current-layer="svg5883" />
<path
   id="tools-2-icon"
   d="M426.316,379.918L236.256,189.856c-9.139-9.137-13.846-21.846-12.848-34.731  c1.887-24.409-6.5-49.462-25.169-68.13c-24.3-24.3-59.417-31.182-89.851-20.658l55.254,55.254  c1.268,21.557-32.062,54.885-53.617,53.617l-55.253-55.253c-10.524,30.433-3.643,65.551,20.657,89.851  c18.668,18.669,43.722,27.054,68.131,25.167c12.896-0.998,25.584,3.701,34.731,12.847l190.062,190.062  c16.006,16.007,41.955,16.007,57.963,0C442.322,421.875,442.322,395.924,426.316,379.918z M395.336,423.291  c-9.328,0-16.893-7.562-16.893-16.893c0-9.328,7.564-16.892,16.893-16.892s16.893,7.563,16.893,16.892  C412.229,415.729,404.664,423.291,395.336,423.291z M276.4,188.014l98.002-98.002c20.039-20.04,52.529-20.04,72.568,0  s20.039,52.529,0,72.568l-98.002,98.002l-17.768-17.767l93.553-93.553c2.889-2.887,2.889-7.568,0-10.457  c-2.887-2.886-7.568-2.886-10.457,0.001l-93.553,93.553l-15.211-15.211l93.551-93.554c2.889-2.887,2.889-7.568,0.002-10.456  c-2.887-2.888-7.568-2.888-10.457,0l-93.553,93.552L276.4,188.014z M224.914,336.429l-72.324,72.325  c-3.921,3.92-7.221,8.414-9.789,13.329l-5.197,9.95l-36.025,18.401l-14.253-14.253l17.624-36.805l9.949-5.196  c4.915-2.566,9.41-5.868,13.329-9.789l72.325-72.324L224.914,336.429z"
   style="fill:#325d9b;fill-opacity:1" />
</svg>