<?xml version="1.0" encoding="UTF-8" standalone="no"?>
<!-- The icon can be used freely in both personal and commercial projects with no attribution required, but always appreciated. 
You may NOT sub-license, resell, rent, redistribute or otherwise transfer the icon without express written permission from iconmonstr.com -->

<svg
   xmlns:dc="http://purl.org/dc/elements/1.1/"
   xmlns:cc="http://creativecommons.org/ns#"
   xmlns:rdf="http://www.w3.org/1999/02/22-rdf-syntax-ns#"
   xmlns:svg="http://www.w3.org/2000/svg"
   xmlns="http://www.w3.org/2000/svg"
   xmlns:sodipodi="http://sodipodi.sourceforge.net/DTD/sodipodi-0.dtd"
   xmlns:inkscape="http://www.inkscape.org/namespaces/inkscape"
   version="1.1"
   x="0px"
   y="0px"
   width="512px"
   height="512px"
   viewBox="0 0 512 512"
   enable-background="new 0 0 512 512"
   xml:space="preserve"
   id="svg2994"
   inkscape:version="0.48.4 r9939"
   sodipodi:docname="AQState.svg"><metadata
   id="metadata3001"><rdf:RDF><cc:Work
       rdf:about=""><dc:format>image/svg+xml</dc:format><dc:type
         rdf:resource="http://purl.org/dc/dcmitype/StillImage" /><dc:title></dc:title></cc:Work></rdf:RDF></metadata><defs
   id="defs2999" /><sodipodi:namedview
   pagecolor="#ffffff"
   bordercolor="#666666"
   borderopacity="1"
   objecttolerance="10"
   gridtolerance="10"
   guidetolerance="10"
   inkscape:pageopacity="0"
   inkscape:pageshadow="2"
   inkscape:window-width="1920"
   inkscape:window-height="1003"
   id="namedview2997"
   showgrid="false"
   inkscape:zoom="0.96484375"
   inkscape:cx="67.88664"
   inkscape:cy="256"
   inkscape:window-x="-9"
   inkscape:window-y="-9"
   inkscape:window-maximized="1"
   inkscape:current-layer="svg2994" />
<path
   id="crosshair-5-icon"
   d="M256,50C142.229,50,50,142.229,50,256c0,113.771,92.229,206,206,206s206-92.229,206-206  C462,142.229,369.771,50,256,50z M256,422c-85.634,0-155.075-64.428-164.81-146h73.877v-40H91.19  c9.023-75.611,69.066-135.771,144.81-144.81v73.878h40V91.19c75.612,9.024,135.771,69.066,144.81,144.81h-73.877v40h73.877  C411.075,357.554,341.657,422,256,422z M203.097,345.333h105.807l12.097,25H191L203.097,345.333z M213.742,323.333h84.516  l-12.097-25h-60.322L213.742,323.333z M236.483,276.333h39.033L256,236L236.483,276.333z"
   style="fill-opacity:1;fill:#325d9b" />
</svg>